<?xml version="1.0" encoding="utf-8" standalone="no"?>
<!DOCTYPE svg PUBLIC "-//W3C//DTD SVG 1.1//EN"
  "http://www.w3.org/Graphics/SVG/1.1/DTD/svg11.dtd">
<svg xmlns:xlink="http://www.w3.org/1999/xlink" width="440.39952pt" height="440.39952pt" viewBox="0 0 440.39952 440.39952" xmlns="http://www.w3.org/2000/svg" version="1.1">
 <metadata>
  <rdf:RDF xmlns:dc="http://purl.org/dc/elements/1.1/" xmlns:cc="http://creativecommons.org/ns#" xmlns:rdf="http://www.w3.org/1999/02/22-rdf-syntax-ns#">
   <cc:Work>
    <dc:type rdf:resource="http://purl.org/dc/dcmitype/StillImage"/>
    <dc:date>2024-02-14T10:27:00.342862</dc:date>
    <dc:format>image/svg+xml</dc:format>
    <dc:creator>
     <cc:Agent>
      <dc:title>Matplotlib v3.7.1, https://matplotlib.org/</dc:title>
     </cc:Agent>
    </dc:creator>
   </cc:Work>
  </rdf:RDF>
 </metadata>
 <defs>
  <style type="text/css">*{stroke-linejoin: round; stroke-linecap: butt}</style>
 </defs>
 <g id="figure_1">
  <g id="patch_1">
   <path d="M 0 440.39952 
L 440.39952 440.39952 
L 440.39952 0 
L 0 0 
z
"/>
  </g>
  <g id="axes_1">
   <g id="line2d_1">
    <path d="M 26.563615 88.493302 
L 28.112704 99.410219 
L 29.661793 112.180232 
L 31.210882 105.493729 
L 32.759971 93.648863 
L 34.30906 73.627111 
L 35.85815 114.765695 
L 37.407239 99.349189 
L 38.956328 102.886652 
L 40.505417 102.0715 
L 42.054506 105.384023 
L 43.603595 81.282861 
L 45.152685 109.945071 
L 46.701774 86.54598 
L 48.250863 97.13138 
L 49.799952 97.791598 
L 51.349041 80.549742 
L 52.89813 97.109337 
L 54.447219 93.210704 
L 55.996309 94.450499 
L 57.545398 84.855108 
L 59.094487 79.560393 
L 60.643576 82.649244 
L 62.192665 98.724421 
L 63.741754 72.42891 
L 65.290844 89.683215 
L 66.839933 100.996799 
L 68.389022 72.099902 
L 69.938111 86.562472 
L 71.4872 90.307277 
L 73.036289 101.114339 
L 74.585379 90.128457 
L 76.134468 75.454999 
L 77.683557 93.573081 
L 79.232646 105.296684 
L 80.781735 85.662655 
L 82.330824 78.963636 
L 83.879914 103.797579 
L 85.429003 87.404126 
L 86.978092 101.964407 
L 88.527181 104.32568 
L 90.07627 84.054309 
L 91.625359 111.912932 
L 93.174449 76.950784 
L 94.723538 84.995635 
L 96.272627 102.649306 
L 97.821716 94.600135 
L 99.370805 85.30724 
L 100.919894 94.118824 
L 102.468984 91.537633 
L 104.018073 62.700502 
L 105.567162 58.281255 
L 107.116251 80.769432 
L 108.66534 112.365644 
L 110.214429 115.831918 
L 111.763519 125.38602 
L 113.312608 139.424181 
L 116.410786 118.4533 
L 117.959875 75.918086 
L 119.508964 55.438018 
L 122.607143 50.35152 
L 124.156232 48.413348 
L 125.705321 92.599274 
L 127.25441 111.529555 
L 128.803499 108.648993 
L 130.352589 121.093337 
L 131.901678 144.132473 
L 133.450767 109.107834 
L 134.999856 107.583561 
L 136.548945 98.098005 
L 138.098034 73.784907 
L 139.647123 59.44968 
L 141.196213 58.463837 
L 142.745302 84.049829 
L 144.294391 80.261282 
L 145.84348 89.065252 
L 147.392569 109.191265 
L 148.941658 108.973135 
L 150.490748 129.169941 
L 152.039837 112.380537 
L 153.588926 135.38798 
L 155.138015 98.830969 
L 156.687104 75.980221 
L 158.236193 61.545261 
L 159.785283 50.949504 
L 161.334372 59.70375 
L 162.883461 77.269713 
L 164.43255 80.44807 
L 165.981639 115.905522 
L 167.530728 113.658559 
L 169.079818 132.70658 
L 170.628907 113.819947 
L 172.177996 120.71442 
L 173.727085 123.354453 
L 175.276174 77.576371 
L 176.825263 75.097264 
L 178.374353 45.176611 
L 179.923442 42.218273 
L 181.472531 73.703841 
L 183.02162 77.064836 
L 184.570709 90.176699 
L 186.119798 97.553394 
L 187.668888 115.747428 
L 189.217977 124.804022 
L 190.767066 119.878147 
L 192.316155 115.878162 
L 193.865244 91.782762 
L 195.414333 85.832554 
L 196.963423 60.229599 
L 198.512512 58.91789 
L 200.061601 59.81486 
L 201.61069 70.636871 
L 203.159779 77.60493 
L 204.708868 110.748103 
L 206.257958 114.12915 
L 209.356136 128.308126 
L 210.905225 115.591322 
L 212.454314 134.791865 
L 214.003403 86.782387 
L 215.552493 63.503266 
L 217.101582 66.284116 
L 218.650671 71.556457 
L 220.19976 108.547156 
L 221.748849 88.529421 
L 223.297938 97.293249 
L 224.847027 87.841118 
L 226.396117 110.427422 
L 227.945206 89.506224 
L 229.494295 89.544746 
L 231.043384 97.066828 
L 232.592473 86.974712 
L 234.141562 111.520248 
L 235.690652 86.384131 
L 237.239741 82.521681 
L 238.78883 97.931026 
L 240.337919 81.270696 
L 241.887008 100.149241 
L 243.436097 81.890613 
L 244.985187 108.206102 
L 246.534276 95.754639 
L 248.083365 81.80241 
L 249.632454 91.452369 
L 251.181543 110.574337 
L 254.279722 82.979634 
L 255.828811 117.326856 
L 257.3779 98.096976 
L 258.926989 100.112576 
L 260.476078 104.677444 
L 262.025167 92.160958 
L 263.574257 84.849258 
L 265.123346 97.912792 
L 266.672435 89.567117 
L 268.221524 72.924023 
L 271.319702 109.385859 
L 272.868792 98.63111 
L 274.417881 97.595584 
L 275.96697 97.619587 
L 277.516059 101.425428 
L 279.065148 82.677904 
L 280.614237 89.644027 
L 282.163327 82.2164 
L 283.712416 100.474811 
L 285.261505 75.211788 
L 286.810594 99.624204 
L 288.359683 86.246871 
L 289.908772 115.138412 
L 291.457862 105.073509 
L 293.006951 100.573167 
L 294.55604 97.018388 
L 296.105129 88.354729 
L 297.654218 76.903161 
L 299.203307 68.216255 
L 300.752397 91.895613 
L 302.301486 88.964099 
L 303.850575 88.159352 
L 305.399664 121.578686 
L 306.948753 138.211354 
L 308.497842 126.884474 
L 310.046931 91.682891 
L 311.596021 84.633764 
L 313.14511 61.294443 
L 314.694199 58.680856 
L 316.243288 26.563615 
L 317.792377 66.897119 
L 319.341466 69.065926 
L 320.890556 91.550822 
L 322.439645 105.480282 
L 323.988734 140.411832 
L 325.537823 127.500948 
L 327.086912 122.372014 
L 328.636001 116.475328 
L 330.185091 75.16912 
L 331.73418 63.59306 
L 334.832358 37.073927 
L 336.381447 52.079442 
L 337.930536 85.3378 
L 339.479626 95.08654 
L 342.577804 129.976061 
L 344.126893 121.787113 
L 345.675982 118.126632 
L 347.225071 118.204624 
L 348.774161 92.204639 
L 350.32325 73.034326 
L 353.421428 54.518506 
L 354.970517 39.498239 
L 356.519606 53.934409 
L 358.068696 79.342255 
L 359.617785 102.272237 
L 361.166874 123.172213 
L 362.715963 137.211807 
L 365.814141 123.180271 
L 367.363231 116.860998 
L 368.91232 73.187744 
L 370.461409 81.669676 
L 372.010498 57.595152 
L 373.559587 46.049474 
L 375.108676 68.485604 
L 376.657766 62.196729 
L 378.206855 86.468342 
L 379.755944 106.613899 
L 381.305033 111.632999 
L 382.854122 143.718478 
L 384.403211 98.752353 
L 385.952301 113.146462 
L 387.50139 101.219051 
L 389.050479 95.762851 
L 390.599568 92.076131 
L 392.148657 55.105427 
L 393.697746 58.772431 
L 395.246835 55.477296 
L 396.795925 91.41325 
L 398.345014 98.937884 
L 399.894103 110.520674 
L 401.443192 119.578619 
L 402.992281 143.922083 
L 404.54137 119.532875 
L 406.09046 122.432162 
L 407.639549 80.454388 
L 409.188638 53.314831 
L 410.737727 50.549297 
L 412.286816 49.709642 
L 412.286816 49.709642 
" clip-path="url(#pf9216097c0)" style="fill: none; stroke: #a3e5f4; stroke-width: 1.5; stroke-linecap: square"/>
   </g>
   <g id="line2d_2">
    <path d="M 26.563615 172.928002 
L 26.718523 173.029468 
L 26.931523 173.499778 
L 27.221977 174.754169 
L 27.60925 177.507861 
L 28.112704 182.864914 
L 28.751703 192.340016 
L 29.545611 207.691485 
L 30.649337 233.773852 
L 33.61197 306.00995 
L 34.463969 320.545963 
L 35.122332 328.322471 
L 35.625786 331.979814 
L 35.993695 333.330317 
L 36.245422 333.59816 
L 36.400331 333.496694 
L 36.61333 333.026384 
L 36.903785 331.771993 
L 37.291057 329.018301 
L 37.794511 323.661248 
L 38.43351 314.186146 
L 39.227418 298.834677 
L 40.331144 272.752309 
L 43.293778 200.516212 
L 44.145777 185.980199 
L 44.804139 178.203691 
L 45.307593 174.546347 
L 45.675502 173.195844 
L 45.927229 172.928002 
L 46.082138 173.029468 
L 46.295138 173.499778 
L 46.585592 174.754169 
L 46.972864 177.507861 
L 47.476318 182.864914 
L 48.115318 192.340016 
L 48.909226 207.691485 
L 50.012952 233.773852 
L 52.975585 306.00995 
L 53.827584 320.545963 
L 54.485947 328.322471 
L 54.989401 331.979814 
L 55.357309 333.330317 
L 55.609036 333.59816 
L 55.763945 333.496694 
L 55.976945 333.026384 
L 56.267399 331.771993 
L 56.654672 329.018301 
L 57.158126 323.661248 
L 57.797125 314.186146 
L 58.591033 298.834677 
L 59.694759 272.752309 
L 62.657392 200.516212 
L 63.509391 185.980199 
L 64.167754 178.203691 
L 64.671208 174.546347 
L 65.039117 173.195844 
L 65.290844 172.928002 
L 65.445753 173.029468 
L 65.658752 173.499778 
L 65.949207 174.754169 
L 66.336479 177.507861 
L 66.839933 182.864914 
L 67.478932 192.340016 
L 68.27284 207.691485 
L 69.376566 233.773852 
L 72.339199 306.00995 
L 73.191198 320.545963 
L 73.849561 328.322471 
L 74.353015 331.979814 
L 74.720924 333.330317 
L 74.972651 333.59816 
L 75.12756 333.496694 
L 75.34056 333.026384 
L 75.631014 331.771993 
L 76.018286 329.018301 
L 76.52174 323.661248 
L 77.160739 314.186146 
L 77.954648 298.834677 
L 79.058374 272.752309 
L 82.021007 200.516212 
L 82.873006 185.980199 
L 83.531369 178.203691 
L 84.034823 174.546347 
L 84.402731 173.195844 
L 84.654458 172.928002 
L 84.809367 173.029468 
L 85.022367 173.499778 
L 85.312821 174.754169 
L 85.700093 177.507861 
L 86.203547 182.864914 
L 86.842547 192.340016 
L 87.636455 207.691485 
L 88.740181 233.773852 
L 91.702814 306.00995 
L 92.554813 320.545963 
L 93.213176 328.322471 
L 93.71663 331.979814 
L 94.084538 333.330317 
L 94.336265 333.59816 
L 94.491174 333.496694 
L 94.704174 333.026384 
L 94.994628 331.771993 
L 95.381901 329.018301 
L 95.885355 323.661248 
L 96.524354 314.186146 
L 97.318262 298.834677 
L 98.421988 272.752309 
L 101.384621 200.516212 
L 102.23662 185.980199 
L 102.894983 178.203691 
L 103.398437 174.546347 
L 103.766346 173.195844 
L 104.018073 172.928002 
L 104.172982 173.029468 
L 104.385981 173.499778 
L 104.676436 174.754169 
L 105.063708 177.507861 
L 105.567162 182.864914 
L 106.206161 192.340016 
L 107.000069 207.691485 
L 108.103795 233.773852 
L 111.066428 306.00995 
L 111.918427 320.545963 
L 112.57679 328.322471 
L 113.080244 331.979814 
L 113.448153 333.330317 
L 113.69988 333.59816 
L 113.854789 333.496694 
L 114.067789 333.026384 
L 114.358243 331.771993 
L 114.745515 329.018301 
L 115.248969 323.661248 
L 115.887968 314.186146 
L 116.681877 298.834677 
L 117.785603 272.752309 
L 120.748236 200.516212 
L 121.600235 185.980199 
L 122.258598 178.203691 
L 122.762052 174.546347 
L 123.12996 173.195844 
L 123.381687 172.928002 
L 123.536596 173.029468 
L 123.749596 173.499778 
L 124.04005 174.754169 
L 124.427322 177.507861 
L 124.930776 182.864914 
L 125.569776 192.340016 
L 126.363684 207.691485 
L 127.46741 233.773852 
L 130.430043 306.00995 
L 131.282042 320.545963 
L 131.940405 328.322471 
L 132.443859 331.979814 
L 132.811768 333.330317 
L 133.063495 333.59816 
L 133.218403 333.496694 
L 133.431403 333.026384 
L 133.721857 331.771993 
L 134.10913 329.018301 
L 134.612584 323.661248 
L 135.251583 314.186146 
L 136.045491 298.834677 
L 137.149217 272.752309 
L 140.11185 200.516212 
L 140.963849 185.980199 
L 141.622212 178.203691 
L 142.125666 174.546347 
L 142.493575 173.195844 
L 142.725938 172.929587 
L 142.84212 253.263081 
L 220.180396 253.263081 
L 220.19976 172.928002 
L 220.296578 172.967642 
L 220.490214 173.284531 
L 220.761305 174.257932 
L 221.129213 176.553962 
L 221.59394 181.009289 
L 222.194212 189.172201 
L 222.949393 202.837446 
L 223.956301 225.576164 
L 227.654752 313.523313 
L 228.409933 324.611593 
L 228.990841 330.266005 
L 229.436204 332.760757 
L 229.746022 333.520471 
L 229.939658 333.583889 
L 230.113931 333.36992 
L 230.365658 332.609102 
L 230.694839 330.817092 
L 231.140202 326.990972 
L 231.701747 319.989068 
L 232.398837 308.256227 
L 233.308927 288.832099 
L 234.761198 252.253587 
L 236.581378 207.691485 
L 237.510831 190.096537 
L 238.227285 180.360248 
L 238.78883 175.451876 
L 239.214829 173.441237 
L 239.505284 172.942273 
L 239.679556 172.985082 
L 239.873192 173.333612 
L 240.144283 174.350957 
L 240.512192 176.70541 
L 240.996282 181.456259 
L 241.596554 189.785915 
L 242.351735 203.62728 
L 243.358643 226.525996 
L 246.960275 312.511256 
L 247.715456 323.903027 
L 248.315728 329.9722 
L 248.780455 332.686497 
L 249.109637 333.520471 
L 249.303273 333.583889 
L 249.477545 333.36992 
L 249.729272 332.609102 
L 250.058454 330.817092 
L 250.503817 326.990972 
L 251.065362 319.989068 
L 251.762452 308.256227 
L 252.672542 288.832099 
L 254.124813 252.253587 
L 255.944992 207.691485 
L 256.874446 190.096537 
L 257.5909 180.360248 
L 258.152445 175.451876 
L 258.578444 173.441237 
L 258.868898 172.942273 
L 259.043171 172.985082 
L 259.236807 173.333612 
L 259.507898 174.350957 
L 259.875806 176.70541 
L 260.359897 181.456259 
L 260.960169 189.785915 
L 261.71535 203.62728 
L 262.722258 226.525996 
L 266.32389 312.511256 
L 267.079071 323.903027 
L 267.679343 329.9722 
L 268.14407 332.686497 
L 268.473251 333.520471 
L 268.666887 333.583889 
L 268.84116 333.36992 
L 269.092887 332.609102 
L 269.422068 330.817092 
L 269.867431 326.990972 
L 270.428976 319.989068 
L 271.126066 308.256227 
L 272.036156 288.832099 
L 273.488427 252.253587 
L 275.308607 207.691485 
L 276.23806 190.096537 
L 276.954514 180.360248 
L 277.516059 175.451876 
L 277.942059 173.441237 
L 278.232513 172.942273 
L 278.406785 172.985082 
L 278.600421 173.333612 
L 278.871512 174.350957 
L 279.239421 176.70541 
L 279.723511 181.456259 
L 280.323783 189.785915 
L 281.078964 203.62728 
L 282.085872 226.525996 
L 285.687504 312.511256 
L 286.442685 323.903027 
L 287.042957 329.9722 
L 287.507684 332.686497 
L 287.836866 333.520471 
L 288.030502 333.583889 
L 288.204774 333.36992 
L 288.456501 332.609102 
L 288.785683 330.817092 
L 289.231046 326.990972 
L 289.792591 319.989068 
L 290.489681 308.256227 
L 291.399771 288.832099 
L 292.852042 252.253587 
L 294.672222 207.691485 
L 295.601675 190.096537 
L 296.318129 180.360248 
L 296.879674 175.451876 
L 297.305673 173.441237 
L 297.596127 172.942273 
L 297.7704 172.985082 
L 297.964036 173.333612 
L 298.235127 174.350957 
L 298.603035 176.70541 
L 299.087126 181.456259 
L 299.687398 189.785915 
L 300.442579 203.62728 
L 301.449487 226.525996 
L 305.051119 312.511256 
L 305.8063 323.903027 
L 306.406572 329.9722 
L 306.871299 332.686497 
L 307.20048 333.520471 
L 307.394116 333.583889 
L 307.568389 333.36992 
L 307.820116 332.609102 
L 308.149297 330.817092 
L 308.59466 326.990972 
L 309.156205 319.989068 
L 309.853295 308.256227 
L 310.763385 288.832099 
L 312.215656 252.253587 
L 314.035836 207.691485 
L 314.96529 190.096537 
L 315.681743 180.360248 
L 316.243288 175.451876 
L 316.669288 173.441237 
L 316.959742 172.942273 
L 317.134014 172.985082 
L 317.327651 173.333612 
L 317.598741 174.350957 
L 317.96665 176.70541 
L 318.45074 181.456259 
L 319.051012 189.785915 
L 319.806193 203.62728 
L 320.813101 226.525996 
L 324.414733 312.511256 
L 325.169914 323.903027 
L 325.770187 329.9722 
L 326.234913 332.686497 
L 326.564095 333.520471 
L 326.757731 333.583889 
L 326.932003 333.36992 
L 327.18373 332.609102 
L 327.512912 330.817092 
L 327.958275 326.990972 
L 328.51982 319.989068 
L 329.21691 308.256227 
L 330.127 288.832099 
L 331.579271 252.253587 
L 333.399451 207.691485 
L 334.328904 190.096537 
L 335.045358 180.360248 
L 335.606903 175.451876 
L 336.032902 173.441237 
L 336.323356 172.942273 
L 336.362084 172.929587 
L 336.478265 253.263081 
L 413.816542 253.263081 
L 413.816542 253.263081 
" clip-path="url(#pf9216097c0)" style="fill: none; stroke: #3fea19; stroke-width: 1.5; stroke-linecap: square"/>
   </g>
   <g id="line2d_3">
    <path d="M 26.563615 412.292601 
L 28.519535 410.551945 
L 30.475456 412.246482 
L 32.431377 411.127445 
L 34.387297 412.643443 
L 36.343218 412.849981 
L 38.299139 412.928271 
L 40.255059 411.098486 
L 42.21098 411.959397 
L 44.1669 413.559449 
L 46.122821 413.337346 
L 48.078742 409.285675 
L 50.034662 413.248902 
L 51.990583 412.088681 
L 53.946504 411.334895 
L 55.902424 411.069474 
L 57.858345 412.93868 
L 59.814266 406.279141 
L 61.770186 413.835735 
L 63.726107 413.416748 
L 65.682028 412.276457 
L 67.637948 407.77494 
L 69.593869 413.013 
L 71.54979 411.750157 
L 73.50571 413.588524 
L 75.461631 409.352469 
L 77.417552 412.795218 
L 79.373472 409.43354 
L 81.329393 413.065191 
L 83.285314 413.493633 
L 85.241234 413.493338 
L 87.197155 409.154732 
L 89.153076 413.215843 
L 91.108996 411.53136 
L 93.064917 412.047384 
L 95.020838 412.264225 
L 96.976758 412.766061 
L 98.932679 408.4116 
L 100.8886 410.875732 
L 102.84452 412.752167 
L 104.800441 413.791514 
L 106.756362 406.963911 
L 108.712282 412.124268 
L 110.668203 410.332011 
L 112.624124 413.582064 
L 114.580044 411.536129 
L 116.535965 413.51674 
L 118.491886 406.525857 
L 120.447806 413.131566 
L 122.403727 411.176628 
L 124.359648 413.068231 
L 126.315568 406.373976 
L 128.271489 412.730113 
L 130.22741 410.162649 
L 132.18333 413.041472 
L 134.139251 409.629685 
L 136.095172 412.157331 
L 138.051092 405.722894 
L 140.007013 412.590535 
L 141.962934 410.967136 
L 143.918854 412.525048 
L 145.874775 406.731887 
L 147.830696 412.25765 
L 149.786616 407.712819 
L 151.742537 412.657623 
L 153.698458 407.963651 
L 155.654378 412.702038 
L 157.610299 404.744948 
L 159.56622 412.355307 
L 161.52214 412.836235 
L 163.478061 412.560093 
L 165.433981 402.190658 
L 167.389902 412.672079 
L 169.345823 406.503424 
L 171.301743 412.955603 
L 173.257664 405.273075 
L 175.213585 413.131231 
L 177.169505 399.06759 
L 179.125426 412.822587 
L 181.081347 413.642127 
L 183.037267 412.81184 
L 184.993188 396.721226 
L 186.949109 412.330936 
L 188.905029 401.026434 
L 190.86095 412.647819 
L 192.816871 399.137171 
L 194.772791 413.43748 
L 196.728712 387.168477 
L 198.684633 413.623144 
L 200.640553 413.225648 
L 202.596474 411.928703 
L 204.552395 373.715778 
L 206.508315 413.428325 
L 208.464236 380.303511 
L 210.420157 412.401555 
L 212.376077 363.178847 
L 214.331998 412.868264 
L 216.287919 253.508173 
L 218.243839 411.160962 
L 220.19976 92.592922 
L 222.155681 413.441239 
L 224.111601 253.087438 
L 226.067522 411.888786 
L 228.023443 364.742113 
L 229.979363 411.994544 
L 231.935284 379.043081 
L 233.891205 412.874935 
L 235.847125 372.94819 
L 237.803046 412.545303 
L 239.758967 412.065178 
L 241.714887 412.799898 
L 243.670808 387.491012 
L 245.626729 413.171499 
L 247.582649 398.846181 
L 249.53857 412.46092 
L 251.494491 400.226367 
L 253.450411 413.181725 
L 255.406332 397.155993 
L 257.362253 413.262329 
L 259.318173 412.808077 
L 261.274094 412.545338 
L 263.230015 398.159707 
L 265.185935 412.679004 
L 267.141856 406.73997 
L 269.097777 411.608558 
L 271.053697 405.861844 
L 273.009618 412.129089 
L 274.965539 401.383176 
L 276.921459 412.21684 
L 278.87738 411.66111 
L 280.8333 412.893925 
L 282.789221 402.65295 
L 284.745142 413.110969 
L 286.701062 408.717591 
L 288.656983 412.970457 
L 290.612904 409.510043 
L 292.568824 412.204008 
L 294.524745 405.543501 
L 296.480666 412.424882 
L 298.436586 412.298738 
L 300.392507 412.835099 
L 302.348428 407.064274 
L 304.304348 413.025721 
L 306.260269 409.834209 
L 308.21619 412.584452 
L 310.17211 407.969661 
L 312.128031 413.835905 
L 314.083952 408.72322 
L 316.039872 413.567698 
L 317.995793 412.665281 
L 319.951714 412.087814 
L 321.907634 408.431231 
L 323.863555 412.626475 
L 325.819476 410.16627 
L 327.775396 411.7422 
L 329.731317 407.854476 
L 331.687238 412.698914 
L 333.643158 408.747995 
L 335.599079 413.167799 
L 337.555 413.629362 
L 339.51092 412.083122 
L 341.466841 408.649087 
L 343.422762 412.732991 
L 345.378682 407.845001 
L 347.334603 412.795482 
L 349.290524 412.527193 
L 351.246444 412.432686 
L 353.202365 408.387811 
L 355.158286 413.52685 
L 357.114206 412.738032 
L 359.070127 411.094456 
L 361.026048 410.948229 
L 362.981968 411.363017 
L 364.937889 409.386953 
L 366.89381 412.604106 
L 368.84973 412.646055 
L 370.805651 413.832634 
L 372.761572 408.634745 
L 374.717492 411.972629 
L 376.673413 413.451793 
L 378.629334 413.094561 
L 380.585254 412.541733 
L 382.541175 411.491511 
L 384.497096 410.788921 
L 386.453016 413.340606 
L 388.408937 410.847781 
L 390.364858 412.208939 
L 392.320778 410.413071 
L 394.276699 412.336729 
L 396.23262 412.99973 
L 398.18854 412.991757 
L 400.144461 410.107512 
L 402.100381 413.122118 
L 404.056302 410.620076 
L 406.012223 412.384737 
L 407.968143 411.318261 
L 409.924064 413.693529 
L 411.879985 411.277136 
L 413.835905 411.959611 
L 413.835905 411.959611 
" clip-path="url(#pf9216097c0)" style="fill: none; stroke: #41c4ec; stroke-width: 3; stroke-linecap: square"/>
   </g>
  </g>
 </g>
 <defs>
  <clipPath id="pf9216097c0">
   <rect x="7.2" y="7.2" width="425.99952" height="425.99952"/>
  </clipPath>
 </defs>
</svg>
